<svg version="1" xmlns="http://www.w3.org/2000/svg" width="400" height="400" viewBox="0 0 300.000000 300.000000"><path d="M143 6.3c-.3.3-3.6.7-7.4 1.1C111 9.7 79.5 21.6 60.2 35.9 43.7 48.1 26.6 67.8 17.8 84.8 10.5 98.7 5 116.7 3.2 132.5c-.8 7.7-.8 30.6 0 36.5 4.5 30.3 19.3 62.6 36.8 80 24.6 24.7 57 40.3 92 44.6 8.2 1.1 39.7 1.1 47 .2 3-.4 7.4-1 9.8-1.3 20.2-2.6 43.6-13.1 64.7-28.8 12.4-9.3 38.3-33.6 43.3-40.8 2.9-4.2-2.6-4.7-13.1-1.3-11.5 3.8-26.4-1.4-35.6-12.5C237 195.7 208 149 208 144.5c0-.6 2.4-2.2 5.3-3.5 10.5-4.8 18.4-12.2 22.6-21 2.3-4.8 2.6-6.8 2.6-15.5 0-9.3-.2-10.5-3.3-16.7-5.6-11.5-16.8-19.8-30.8-23.1-9.1-2.1-89.1-2.1-97.1 0-11.6 3-22.6 10.9-27.8 19.8-5.8 9.9-6.6 24.6-2 35.1 2.9 6.5 10 13.9 17.6 18.3l4.8 2.7-5.7 2.8c-20.4 10-29.2 22.3-29.8 41.6-.5 19.2 7.8 32.8 25.9 42.2 11.1 5.8 21.7 7.5 44.9 7.2 8.4-.1 23.5-.2 33.5-.4 13.4-.1 18.5-.5 19.3-1.5 1.2-1.4-1.6-2.8-8.8-4.4-8.9-1.9-10.9-5.3-11.7-19.3-.7-13.3-.7-57.7.1-58.9 1.3-2.1 13.6-.5 17.3 2.2 1.9 1.4 7.7 9.4 13.9 19.4 23.7 38.1 36 54.1 44.2 57.5 1.7.7 3 2 3 2.9 0 2.7-7.4 16.5-12.3 22.8-6.1 7.9-13.1 14-22 19.1-7.8 4.5-18.8 8.7-25.2 9.6-2.3.4-5.2.9-6.5 1.2-4.8 1-27.6 1.2-34 .2-10.5-1.5-10.8-1.5-19.3-4.3-8.1-2.7-22.8-9.5-25.7-12-.8-.7-2-1.4-2.7-1.6-.6-.2-3.3-2.2-5.9-4.4C68.6 242.6 50.8 210 44 173.8c-7.4-39.1 3.3-89.3 25.4-119.2 12.9-17.5 35.8-32.4 59.6-38.7 12.8-3.4 36.2-3.4 53 .1 15.8 3.3 30.7 10.7 42.4 21 6 5.3 14.9 19.6 17.5 28.5 2.3 7.3 3.3 9.5 4.7 9.5 2.4 0 3.4-4.7 2.8-12.8-.3-4.2-.7-12.7-.8-18.7-.2-6.1-.8-12-1.4-13.1C245 26.2 222 17 201.1 11.9c-8.6-2.1-9.6-2.3-16.1-3.3-1.9-.3-4.6-.8-6-1.1-3-.7-35.4-1.7-36-1.2zm-3.5 63.1c6.1 2.6 6.1 2.9 7.1 45.8l.7 27.8-2.4.8c-4.8 1.8-24.1-.7-32.2-4.2-10.4-4.4-17.7-19.1-17.1-34.2.6-16.1 7.6-27.8 19.9-33.9 8.7-4.3 16.9-5 24-2.1zm58.9 2.6c13.4 6.7 20.6 21.6 19.3 39.7-.9 12-7.8 23.8-16.6 28.3-7.4 3.7-32 6.6-33.7 3.9-1.3-2.1-.4-54.1 1.1-66.6.7-5.9 3.6-8.8 9-9.5 4.9-.5 15.7 1.7 20.9 4.2zm-76.2 75.5c3.1.4 9.5.8 14.3.9 6.1.2 9 .7 9.7 1.7.9 1.4.3 58.2-.7 64.9-.9 5.2-3.4 8.2-10 11.5-5.3 2.6-7 3-14.5 3-7.3 0-9.3-.4-14.1-2.8-6.2-3-12.7-9.3-15.7-15.4-5.8-11.3-5.8-29.9 0-43 4.3-9.8 18.5-23.1 23.3-21.9 1.1.3 4.5.8 7.7 1.1z"/></svg>